<svg width="21" height="21" viewBox="0 0 21 21" fill="none" xmlns="http://www.w3.org/2000/svg">
<path d="M14.9023 1.79791C16.0443 1.8012 17.1387 2.23953 17.9462 3.01718C18.7538 3.79483 19.209 4.84861 19.2124 5.94837V14.2484C19.209 15.3481 18.7538 16.4019 17.9462 17.1796C17.1387 17.9572 16.0443 18.3955 14.9023 18.3988H6.28305C5.14099 18.3955 4.04668 17.9572 3.23913 17.1796C2.43157 16.4019 1.97637 15.3481 1.97296 14.2484V5.94837C1.97637 4.84861 2.43157 3.79483 3.23913 3.01718C4.04668 2.23953 5.14099 1.8012 6.28305 1.79791H14.9023ZM14.9023 0.138H6.28305C2.96437 0.138 0.249207 2.7526 0.249207 5.94837V14.2484C0.249207 17.4441 2.96437 20.0587 6.28305 20.0587H14.9023C18.221 20.0587 20.9361 17.4441 20.9361 14.2484V5.94837C20.9361 2.7526 18.221 0.138 14.9023 0.138Z" fill="#274C5B"/>
<path d="M16.1951 5.94896C15.9394 5.94896 15.6894 5.87594 15.4768 5.73913C15.2642 5.60232 15.0985 5.40787 15.0006 5.18037C14.9028 4.95287 14.8771 4.70253 14.927 4.46101C14.9769 4.2195 15.1001 3.99765 15.2809 3.82353C15.4617 3.64941 15.6921 3.53083 15.9429 3.48279C16.1937 3.43475 16.4537 3.4594 16.6899 3.55364C16.9262 3.64787 17.1281 3.80745 17.2702 4.0122C17.4122 4.21695 17.4881 4.45766 17.4881 4.70391C17.4884 4.86751 17.4552 5.02957 17.3904 5.18078C17.3255 5.332 17.2303 5.46939 17.1102 5.58507C16.99 5.70076 16.8474 5.79245 16.6903 5.8549C16.5333 5.91734 16.365 5.94931 16.1951 5.94896ZM10.5926 6.77869C11.2745 6.77869 11.9411 6.97342 12.5082 7.33826C13.0752 7.70309 13.5171 8.22165 13.7781 8.82835C14.0391 9.43505 14.1073 10.1026 13.9743 10.7467C13.8413 11.3908 13.5129 11.9824 13.0307 12.4468C12.5484 12.9111 11.9341 13.2273 11.2652 13.3554C10.5964 13.4836 9.90312 13.4178 9.27309 13.1665C8.64305 12.9152 8.10455 12.4896 7.72568 11.9436C7.34682 11.3976 7.1446 10.7557 7.1446 10.099C7.14557 9.21866 7.50916 8.37468 8.15556 7.75222C8.80197 7.12975 9.67841 6.77963 10.5926 6.77869ZM10.5926 5.11878C9.5697 5.11878 8.5698 5.41086 7.71931 5.95809C6.86882 6.50532 6.20595 7.28312 5.81451 8.19313C5.42308 9.10314 5.32066 10.1045 5.52021 11.0706C5.71977 12.0366 6.21233 12.924 6.9356 13.6205C7.65888 14.317 8.5804 14.7913 9.58362 14.9835C10.5868 15.1756 11.6267 15.077 12.5717 14.7001C13.5167 14.3231 14.3244 13.6848 14.8927 12.8658C15.461 12.0468 15.7643 11.084 15.7643 10.099C15.7643 8.77814 15.2194 7.51141 14.2495 6.57744C13.2796 5.64347 11.9642 5.11878 10.5926 5.11878Z" fill="#274C5B"/>
</svg>
