<svg width="23" height="19" viewBox="0 0 23 19" fill="none" xmlns="http://www.w3.org/2000/svg">
<path d="M22.2851 2.42805C21.4537 2.78931 20.574 3.02732 19.6739 3.13455C20.6199 2.58061 21.3313 1.70057 21.6747 0.659502C20.7803 1.18249 19.8034 1.54944 18.7859 1.74464C18.3574 1.29559 17.8421 0.938362 17.2713 0.694663C16.7005 0.450964 16.0861 0.325887 15.4654 0.327034C12.9525 0.327034 10.9189 2.33108 10.9189 4.80151C10.9171 5.14513 10.9565 5.48774 11.0362 5.822C9.23422 5.73752 7.46976 5.27785 5.85565 4.47239C4.24154 3.66692 2.81333 2.53341 1.6624 1.14435C1.25862 1.82504 1.04508 2.60169 1.0441 3.39313C1.0441 4.94465 1.85357 6.31608 3.07585 7.11955C2.35168 7.10236 1.64235 6.9107 1.00808 6.56082V6.61623C1.00808 8.78651 2.57807 10.592 4.656 11.003C4.26525 11.1071 3.86259 11.1599 3.45819 11.16C3.17124 11.1605 2.88494 11.1326 2.60347 11.0768C3.18113 12.8546 4.86241 14.1476 6.85399 14.1845C5.23569 15.4317 3.24884 16.1058 1.20572 16.1008C0.843056 16.1003 0.480733 16.0787 0.120575 16.0362C2.19905 17.3634 4.61511 18.0654 7.08117 18.0587C15.4557 18.0587 20.0308 11.2385 20.0308 5.3233C20.0308 5.12936 20.0257 4.93542 20.0165 4.74609C20.9045 4.11443 21.6728 3.32946 22.2851 2.42805Z" fill="#274C5B"/>
</svg>
